<mxfile host="app.diagrams.net" modified="2024-01-26T01:43:09.891Z" agent="Mozilla/5.0 (Windows NT 10.0; Win64; x64) AppleWebKit/537.36 (KHTML, like Gecko) Chrome/120.0.0.0 Safari/537.36" etag="k5wDJrkS2NuESjXhTgA7" version="23.0.2" type="github">
  <diagram name="Страница — 1" id="sSLfoPAhQPg0m1m8DUDP">
    <mxGraphModel dx="1687" dy="918" grid="1" gridSize="10" guides="1" tooltips="1" connect="1" arrows="1" fold="1" page="1" pageScale="1" pageWidth="1169" pageHeight="827" math="0" shadow="0">
      <root>
        <mxCell id="0" />
        <mxCell id="1" parent="0" />
        <mxCell id="MSFHlafdtDalebUKz_JX-9" style="edgeStyle=orthogonalEdgeStyle;rounded=0;orthogonalLoop=1;jettySize=auto;html=1;entryX=0.5;entryY=0;entryDx=0;entryDy=0;" edge="1" parent="1" source="MSFHlafdtDalebUKz_JX-5" target="MSFHlafdtDalebUKz_JX-7">
          <mxGeometry relative="1" as="geometry" />
        </mxCell>
        <mxCell id="MSFHlafdtDalebUKz_JX-5" value="&lt;font style=&quot;font-size: 12px;&quot;&gt;Login Page&lt;/font&gt;" style="rounded=1;whiteSpace=wrap;html=1;fillColor=#d5e8d4;strokeColor=#82b366;" vertex="1" parent="1">
          <mxGeometry x="360" y="40" width="120" height="40" as="geometry" />
        </mxCell>
        <mxCell id="MSFHlafdtDalebUKz_JX-19" style="edgeStyle=orthogonalEdgeStyle;rounded=0;orthogonalLoop=1;jettySize=auto;html=1;entryX=0.5;entryY=0;entryDx=0;entryDy=0;" edge="1" parent="1" source="MSFHlafdtDalebUKz_JX-6" target="MSFHlafdtDalebUKz_JX-15">
          <mxGeometry relative="1" as="geometry" />
        </mxCell>
        <mxCell id="MSFHlafdtDalebUKz_JX-6" value="Register Page" style="rounded=1;whiteSpace=wrap;html=1;fillColor=#fff2cc;strokeColor=#d6b656;" vertex="1" parent="1">
          <mxGeometry x="680" y="40" width="120" height="40" as="geometry" />
        </mxCell>
        <mxCell id="MSFHlafdtDalebUKz_JX-12" style="edgeStyle=orthogonalEdgeStyle;rounded=0;orthogonalLoop=1;jettySize=auto;html=1;" edge="1" parent="1" source="MSFHlafdtDalebUKz_JX-7" target="MSFHlafdtDalebUKz_JX-10">
          <mxGeometry relative="1" as="geometry" />
        </mxCell>
        <mxCell id="MSFHlafdtDalebUKz_JX-7" value="E-mail Form" style="rounded=1;whiteSpace=wrap;html=1;fillColor=#d5e8d4;strokeColor=#82b366;" vertex="1" parent="1">
          <mxGeometry x="360" y="120" width="120" height="40" as="geometry" />
        </mxCell>
        <mxCell id="MSFHlafdtDalebUKz_JX-23" style="edgeStyle=orthogonalEdgeStyle;rounded=0;orthogonalLoop=1;jettySize=auto;html=1;entryX=0.5;entryY=0;entryDx=0;entryDy=0;" edge="1" parent="1" source="MSFHlafdtDalebUKz_JX-10" target="MSFHlafdtDalebUKz_JX-22">
          <mxGeometry relative="1" as="geometry" />
        </mxCell>
        <mxCell id="MSFHlafdtDalebUKz_JX-10" value="Password Form" style="rounded=1;whiteSpace=wrap;html=1;fillColor=#d5e8d4;strokeColor=#82b366;" vertex="1" parent="1">
          <mxGeometry x="360" y="200" width="120" height="40" as="geometry" />
        </mxCell>
        <mxCell id="MSFHlafdtDalebUKz_JX-14" style="edgeStyle=orthogonalEdgeStyle;rounded=0;orthogonalLoop=1;jettySize=auto;html=1;" edge="1" parent="1" source="MSFHlafdtDalebUKz_JX-15" target="MSFHlafdtDalebUKz_JX-17">
          <mxGeometry relative="1" as="geometry" />
        </mxCell>
        <mxCell id="MSFHlafdtDalebUKz_JX-15" value="E-mail Form" style="rounded=1;whiteSpace=wrap;html=1;fillColor=#fff2cc;strokeColor=#d6b656;" vertex="1" parent="1">
          <mxGeometry x="680" y="120" width="120" height="40" as="geometry" />
        </mxCell>
        <mxCell id="MSFHlafdtDalebUKz_JX-16" style="edgeStyle=orthogonalEdgeStyle;rounded=0;orthogonalLoop=1;jettySize=auto;html=1;entryX=0.5;entryY=0;entryDx=0;entryDy=0;" edge="1" parent="1" source="MSFHlafdtDalebUKz_JX-17" target="MSFHlafdtDalebUKz_JX-18">
          <mxGeometry relative="1" as="geometry" />
        </mxCell>
        <mxCell id="MSFHlafdtDalebUKz_JX-17" value="Password Form" style="rounded=1;whiteSpace=wrap;html=1;fillColor=#fff2cc;strokeColor=#d6b656;" vertex="1" parent="1">
          <mxGeometry x="680" y="200" width="120" height="40" as="geometry" />
        </mxCell>
        <mxCell id="MSFHlafdtDalebUKz_JX-21" style="edgeStyle=orthogonalEdgeStyle;rounded=0;orthogonalLoop=1;jettySize=auto;html=1;entryX=0.5;entryY=0;entryDx=0;entryDy=0;" edge="1" parent="1" source="MSFHlafdtDalebUKz_JX-18" target="MSFHlafdtDalebUKz_JX-20">
          <mxGeometry relative="1" as="geometry" />
        </mxCell>
        <mxCell id="MSFHlafdtDalebUKz_JX-18" value="Username" style="rounded=1;whiteSpace=wrap;html=1;fillColor=#fff2cc;strokeColor=#d6b656;" vertex="1" parent="1">
          <mxGeometry x="680" y="280" width="120" height="40" as="geometry" />
        </mxCell>
        <mxCell id="MSFHlafdtDalebUKz_JX-35" style="edgeStyle=orthogonalEdgeStyle;rounded=0;orthogonalLoop=1;jettySize=auto;html=1;entryX=1;entryY=0.5;entryDx=0;entryDy=0;" edge="1" parent="1" source="MSFHlafdtDalebUKz_JX-20" target="MSFHlafdtDalebUKz_JX-32">
          <mxGeometry relative="1" as="geometry">
            <Array as="points">
              <mxPoint x="740" y="500" />
            </Array>
          </mxGeometry>
        </mxCell>
        <mxCell id="MSFHlafdtDalebUKz_JX-20" value="Verify Link" style="rounded=1;whiteSpace=wrap;html=1;fillColor=#fff2cc;strokeColor=#d6b656;" vertex="1" parent="1">
          <mxGeometry x="680" y="360" width="120" height="40" as="geometry" />
        </mxCell>
        <mxCell id="MSFHlafdtDalebUKz_JX-37" style="edgeStyle=orthogonalEdgeStyle;rounded=0;orthogonalLoop=1;jettySize=auto;html=1;entryX=0;entryY=0.5;entryDx=0;entryDy=0;" edge="1" parent="1" source="MSFHlafdtDalebUKz_JX-22" target="MSFHlafdtDalebUKz_JX-32">
          <mxGeometry relative="1" as="geometry">
            <Array as="points">
              <mxPoint x="420" y="500" />
            </Array>
          </mxGeometry>
        </mxCell>
        <mxCell id="MSFHlafdtDalebUKz_JX-22" value="Verify Link" style="rounded=1;whiteSpace=wrap;html=1;fillColor=#d5e8d4;strokeColor=#82b366;" vertex="1" parent="1">
          <mxGeometry x="360" y="280" width="120" height="40" as="geometry" />
        </mxCell>
        <mxCell id="MSFHlafdtDalebUKz_JX-24" style="edgeStyle=orthogonalEdgeStyle;rounded=0;orthogonalLoop=1;jettySize=auto;html=1;entryX=0.5;entryY=0;entryDx=0;entryDy=0;" edge="1" parent="1" source="MSFHlafdtDalebUKz_JX-25" target="MSFHlafdtDalebUKz_JX-27">
          <mxGeometry relative="1" as="geometry" />
        </mxCell>
        <mxCell id="MSFHlafdtDalebUKz_JX-25" value="&lt;font style=&quot;font-size: 12px;&quot;&gt;Restore Page&lt;/font&gt;" style="rounded=1;whiteSpace=wrap;html=1;fillColor=#dae8fc;strokeColor=#6c8ebf;" vertex="1" parent="1">
          <mxGeometry x="520" y="40" width="120" height="40" as="geometry" />
        </mxCell>
        <mxCell id="MSFHlafdtDalebUKz_JX-26" style="edgeStyle=orthogonalEdgeStyle;rounded=0;orthogonalLoop=1;jettySize=auto;html=1;" edge="1" parent="1" source="MSFHlafdtDalebUKz_JX-27" target="MSFHlafdtDalebUKz_JX-29">
          <mxGeometry relative="1" as="geometry" />
        </mxCell>
        <mxCell id="MSFHlafdtDalebUKz_JX-27" value="E-mail Form" style="rounded=1;whiteSpace=wrap;html=1;fillColor=#dae8fc;strokeColor=#6c8ebf;" vertex="1" parent="1">
          <mxGeometry x="520" y="120" width="120" height="40" as="geometry" />
        </mxCell>
        <mxCell id="MSFHlafdtDalebUKz_JX-28" style="edgeStyle=orthogonalEdgeStyle;rounded=0;orthogonalLoop=1;jettySize=auto;html=1;entryX=0.5;entryY=0;entryDx=0;entryDy=0;" edge="1" parent="1" source="MSFHlafdtDalebUKz_JX-29" target="MSFHlafdtDalebUKz_JX-30">
          <mxGeometry relative="1" as="geometry" />
        </mxCell>
        <mxCell id="MSFHlafdtDalebUKz_JX-29" value="Password Form" style="rounded=1;whiteSpace=wrap;html=1;fillColor=#dae8fc;strokeColor=#6c8ebf;" vertex="1" parent="1">
          <mxGeometry x="520" y="200" width="120" height="40" as="geometry" />
        </mxCell>
        <mxCell id="MSFHlafdtDalebUKz_JX-36" style="edgeStyle=orthogonalEdgeStyle;rounded=0;orthogonalLoop=1;jettySize=auto;html=1;entryX=0.5;entryY=0;entryDx=0;entryDy=0;" edge="1" parent="1" source="MSFHlafdtDalebUKz_JX-30" target="MSFHlafdtDalebUKz_JX-32">
          <mxGeometry relative="1" as="geometry" />
        </mxCell>
        <mxCell id="MSFHlafdtDalebUKz_JX-30" value="Verify Link" style="rounded=1;whiteSpace=wrap;html=1;fillColor=#dae8fc;strokeColor=#6c8ebf;" vertex="1" parent="1">
          <mxGeometry x="520" y="280" width="120" height="40" as="geometry" />
        </mxCell>
        <mxCell id="MSFHlafdtDalebUKz_JX-32" value="Firebase" style="rounded=1;whiteSpace=wrap;html=1;fillColor=#ffcd28;strokeColor=#d79b00;gradientColor=#ffa500;" vertex="1" parent="1">
          <mxGeometry x="520" y="480" width="120" height="40" as="geometry" />
        </mxCell>
      </root>
    </mxGraphModel>
  </diagram>
</mxfile>
